<?xml version="1.0" encoding="UTF-8"?>
<!DOCTYPE svg PUBLIC "-//W3C//DTD SVG 1.1//EN" "http://www.w3.org/Graphics/SVG/1.1/DTD/svg11.dtd" [
  <!ENTITY fill_color "#000000">
  <!ENTITY stroke_color "#FFFFFF">
]>
<svg xmlns="http://www.w3.org/2000/svg" width="50" height="50">
    <defs>
        <mask id="Mask" maskUnits="userSpaceOnUse" x="0" y="0" width="50" height="50">
            <rect x="0" y="0" width="50" height="50" fill="white"/>
            <line x1="35" y1="4" x2="35" y2="26" stroke-width="10.0" stroke="black" />
            <line x1="24" y1="15" x2="46" y2="15" stroke-width="10.0" stroke="black" />
            <polyline points="17.7,38.7 26.3,31 21,38.7" style="fill:black;;stroke:none;;stroke-width:0"/>
        </mask>
    </defs>
    <rect x="5" y="15.7" width="29" height="24" mask="url(#Mask)" style="fill:none;;stroke:&stroke_color;;stroke-width:3"/>
    <polyline points="13,15.7 20.7,11.7 26.3,15.7" mask="url(#Mask)" style="fill:none;;stroke:&stroke_color;;stroke-width:1.25"/>
    <circle cx="12.3" cy="23.7" r="3" mask="url(#Mask)" style="fill:&stroke_color;;stroke:&stroke_color;;stroke-width:1.5"/>
    <polyline points="5,35 13.7,32.3 20.3,34.1" mask="url(#Mask)" style="fill:none;;stroke:&stroke_color;;stroke-width:2.5"/>
    <polyline points="13,39.7 27.6,29.6 34.3,33.6 34.3,39.7" mask="url(#Mask)" style="fill:&stroke_color;;stroke:&stroke_color;;stroke-width:3"/>
    <polyline points="20.3,26.3 21.7,27.7 23,26.3" mask="url(#Mask)" style="fill:none;;stroke:&stroke_color;;stroke-width:.9"/>
    <polyline points="23.8,24.3 25.3,22.8 26.9,24.3" mask="url(#Mask)" style="fill:none;;stroke:&stroke_color;;stroke-width:1"/>
    <polyline points="27,19.7 28.7,21.3 30.3,19.7" mask="url(#Mask)" style="fill:none;;stroke:&stroke_color;;stroke-width:1"/>
    <line x1="35" y1="5" x2="35" y2="25" stroke-width="6.0" stroke="&stroke_color;" />
    <line x1="25" y1="15" x2="45" y2="15" stroke-width="6.0" stroke="&stroke_color;" />
</svg>
