<?xml version="1.0" encoding="UTF-8" standalone="no"?>
<!-- Created with Inkscape (http://www.inkscape.org/) -->

<svg
   xmlns:dc="http://purl.org/dc/elements/1.1/"
   xmlns:cc="http://creativecommons.org/ns#"
   xmlns:rdf="http://www.w3.org/1999/02/22-rdf-syntax-ns#"
   xmlns:svg="http://www.w3.org/2000/svg"
   xmlns="http://www.w3.org/2000/svg"
   version="1.1"
   width="55"
   height="55"
   id="svg2">
  <metadata
     id="metadata10">
    <rdf:RDF>
      <cc:Work
         rdf:about="">
        <dc:format>image/svg+xml</dc:format>
        <dc:type
           rdf:resource="http://purl.org/dc/dcmitype/StillImage" />
        <dc:title></dc:title>
      </cc:Work>
    </rdf:RDF>
  </metadata>
  <defs
     id="defs8" />
  <path
     d="m 13.499997,19.999999 q 2,-2 4,1.000001 l 0,12 q 1,2 2,0 l 0,-24.0000005 q 2,-2 4,0 l 0,18.0000005 q 1,2 2,0 l 0,-18.0000005 q 2,-2 4,0 l 0,18.0000005 q 1,2 2,0 l 0,-18.0000005 q 2,-2 4,0 l 0,18.0000005 q 1,2 2,0 l 0,-13.000001 q 2,-2 4,0 l 0,25.000001 q 0,7 -6,8 l -16,0 q -6,0 -6,-8"
     id="path4"
     style="fill:#ffffff;fill-opacity:1;stroke:none" />
</svg>
